<svg width="227" height="55" viewBox="0 0 227 55" fill="none" xmlns="http://www.w3.org/2000/svg">
<g clip-path="url(#clip0_2005_2)">
<path d="M16.7008 6.22455L28.7102 40.8016H24.5824L20.7363 29.7162H7.9277C7.80303 30.0754 7.26336 31.6542 6.30869 34.4526C5.35401 37.2528 4.64356 39.3686 4.17391 40.8016H0L11.9155 6.22455H16.7008ZM9.24272 25.6128H19.3752C18.687 23.6588 17.7955 21.0382 16.7008 17.7508C15.6061 14.4634 14.8085 12.0864 14.3081 10.6213C12.4944 16.0582 10.8054 21.056 9.24101 25.6146L9.24272 25.6128Z" fill="#7D8E39"/>
<path d="M54.932 40.8016L44.1898 26.6884H39.0766V40.8016H35.1367V6.22455H47.8018C51.1799 6.22455 53.9005 7.07084 55.9635 8.76342C58.0283 10.456 59.0905 13.0607 59.1537 16.5774C59.1537 19.8328 58.2315 22.2827 56.3853 23.9273C54.5392 25.5719 52.1004 26.4751 49.0673 26.6369L59.7634 40.7998H54.932V40.8016ZM39.0766 22.8783H47.8497C50.2252 22.8783 52.0475 22.3894 53.3147 21.4133C54.5819 20.4373 55.2138 18.8247 55.2138 16.5792C55.2138 12.4117 52.7579 10.328 47.848 10.328H39.0749V22.8783H39.0766Z" fill="#7D8E39"/>
<path d="M66.0038 30.3989V16.5774C66.0038 13.1584 67.3172 10.4969 69.9438 8.59272C72.5704 6.68856 75.6821 5.7356 79.2787 5.7356C81.5621 5.7356 83.6883 6.12674 85.6591 6.90725C87.63 7.68775 89.2712 8.91807 90.5845 10.5947C91.8978 12.2712 92.5553 14.2661 92.5553 16.5774V30.3989C92.5553 32.7102 91.8978 34.7139 90.5845 36.4065C89.2712 38.0991 87.6283 39.3365 85.6591 40.1188C83.6883 40.9011 81.5621 41.2905 79.2787 41.2905C75.6821 41.2905 72.5704 40.3304 69.9438 38.4085C67.3172 36.4883 66.0038 33.8179 66.0038 30.3989ZM69.8977 16.5774V30.3491C69.8977 32.4986 70.8199 34.1752 72.666 35.3789C74.5105 36.5843 76.7153 37.1852 79.2804 37.1852C81.8456 37.1852 84.0111 36.5825 85.8709 35.3789C87.7307 34.1752 88.6615 32.4969 88.6615 30.3491V16.5774C88.6615 14.3301 87.7393 12.6304 85.8931 11.4729C84.047 10.3173 81.8268 9.73947 79.2326 9.73947C76.6675 9.77148 74.4712 10.3671 72.6421 11.5227C70.8131 12.6784 69.8977 14.3638 69.8977 16.5774Z" fill="#7D8E39"/>
<path d="M100.389 30.3491V16.5276C100.389 14.2483 101.006 12.2712 102.242 10.5947C103.477 8.91808 105.033 7.68953 106.91 6.90725C108.786 6.12496 110.803 5.7356 112.96 5.7356C115.43 5.7356 117.746 6.34542 119.903 7.56686C122.061 8.78829 123.655 10.5218 124.688 12.7673L121.122 14.4279C120.434 12.9308 119.324 11.7752 117.792 10.9609C116.26 10.1466 114.617 9.73947 112.866 9.73947C110.552 9.73947 108.542 10.3262 106.838 11.4978C105.133 12.6695 104.281 14.3141 104.281 16.4298V30.3474C104.281 32.4969 105.14 34.1735 106.862 35.3771C108.581 36.5825 110.614 37.1835 112.96 37.1835C115.307 37.1835 117.346 36.5808 119.083 35.3771C120.818 34.1735 121.687 32.4951 121.687 30.3474V26.8804H111.883V22.8268H125.581V30.3474C125.581 33.7983 124.338 36.4847 121.851 38.4049C119.365 40.3268 116.402 41.2869 112.962 41.2869C109.522 41.2869 106.566 40.3268 104.095 38.4049C101.624 36.4847 100.389 33.7983 100.389 30.3474V30.3491Z" fill="#7D8E39"/>
<path d="M178.214 6.22455L190.224 40.8016H186.096L182.25 29.7162H169.443C169.318 30.0754 168.779 31.6542 167.824 34.4526C166.869 37.2528 166.159 39.3686 165.689 40.8016H161.514L173.429 6.22455H178.214ZM170.756 25.6128H180.889C180.201 23.6588 179.309 21.0382 178.214 17.7508C177.12 14.4634 176.322 12.0864 175.822 10.6213C174.008 16.0582 172.319 21.056 170.755 25.6146L170.756 25.6128Z" fill="#7D8E39"/>
<path d="M215.51 10.3262H204.862V40.7998H200.922V10.3262H190.273V6.22455H215.512V10.3262H215.51Z" fill="#7D8E39"/>
<path d="M226.346 6.22455V40.8016H222.452V6.22455H226.346Z" fill="#7D8E39"/>
<path d="M63.7119 52.982V46.1175H66.1985C66.6357 46.1175 66.9704 46.1388 67.201 46.1833C67.5255 46.2402 67.7953 46.3468 68.0156 46.5033C68.2342 46.6615 68.4101 46.882 68.5433 47.1665C68.6765 47.4509 68.7431 47.7621 68.7431 48.1034C68.7431 48.6866 68.5655 49.1809 68.2086 49.5844C67.8517 49.988 67.2078 50.1907 66.2754 50.1907H64.5846V52.982H63.7119ZM64.5846 49.3818H66.289C66.8526 49.3818 67.2522 49.2733 67.4896 49.0546C67.727 48.8359 67.8448 48.5284 67.8448 48.1319C67.8448 47.8456 67.7748 47.5985 67.6365 47.394C67.4964 47.1896 67.3137 47.0545 67.0849 46.9887C66.938 46.9478 66.6664 46.9282 66.2702 46.9282H64.5829V49.3818H64.5846Z" fill="#231F20"/>
<path d="M69.937 52.982V46.1175H70.7465V48.5799C71.1239 48.1248 71.6004 47.8972 72.1776 47.8972C72.5311 47.8972 72.8385 47.9701 73.0998 48.1141C73.3611 48.2599 73.5473 48.4608 73.66 48.715C73.7727 48.9711 73.8291 49.3426 73.8291 49.8298V52.9803H73.0196V49.8298C73.0196 49.4084 72.9325 49.1026 72.7566 48.9106C72.5807 48.7186 72.333 48.6226 72.012 48.6226C71.7729 48.6226 71.5457 48.6884 71.3357 48.8164C71.1239 48.9462 70.9736 49.1222 70.8831 49.3426C70.7926 49.5649 70.7482 49.8707 70.7482 50.26V52.9803H69.9387L69.937 52.982Z" fill="#231F20"/>
<path d="M75.2073 54.8969L75.1167 54.1057C75.2944 54.1555 75.4481 54.1804 75.5796 54.1804C75.7589 54.1804 75.904 54.1484 76.0116 54.0862C76.1192 54.0239 76.208 53.9368 76.2764 53.8248C76.3276 53.7412 76.4096 53.5314 76.524 53.1972C76.5394 53.151 76.5633 53.0816 76.5957 52.991L74.7837 48.0092H75.6564L76.6504 50.8895C76.7785 51.2539 76.8946 51.638 76.9971 52.0415C77.0893 51.654 77.2003 51.277 77.3301 50.909L78.3514 48.011H79.1609L77.3437 53.0674C77.1491 53.6132 76.9971 53.9901 76.8895 54.1964C76.746 54.4737 76.5803 54.6782 76.3942 54.808C76.208 54.9378 75.986 55.0018 75.7281 55.0018C75.5727 55.0018 75.3985 54.968 75.2055 54.8987L75.2073 54.8969Z" fill="#231F20"/>
<path d="M79.7108 51.4975L80.5117 51.3659C80.5562 51.7002 80.6825 51.9562 80.8875 52.134C81.0924 52.3118 81.3793 52.4007 81.7482 52.4007C82.1171 52.4007 82.3955 52.3225 82.5765 52.1642C82.7558 52.006 82.8463 51.8211 82.8463 51.6095C82.8463 51.4193 82.7661 51.2699 82.6072 51.1597C82.4962 51.085 82.2196 50.989 81.779 50.8735C81.1846 50.717 80.773 50.5819 80.5442 50.4681C80.3153 50.3543 80.1412 50.1961 80.0216 49.9952C79.9038 49.7943 79.844 49.572 79.844 49.3285C79.844 49.1062 79.8935 48.9017 79.9909 48.7133C80.0882 48.5248 80.2214 48.3684 80.3888 48.2421C80.5152 48.1461 80.6859 48.0643 80.9045 47.9968C81.1214 47.9292 81.3554 47.8954 81.6048 47.8954C81.9788 47.8954 82.3084 47.9523 82.5919 48.0643C82.8754 48.1764 83.0837 48.3293 83.2186 48.5213C83.3536 48.7133 83.4458 48.9693 83.497 49.2911L82.7046 49.4031C82.6687 49.1471 82.5645 48.948 82.3921 48.804C82.2196 48.66 81.9754 48.5888 81.6611 48.5888C81.2888 48.5888 81.0241 48.6528 80.8653 48.7808C80.7064 48.9089 80.6262 49.0582 80.6262 49.2307C80.6262 49.3409 80.6586 49.4387 80.7252 49.5258C80.7918 49.6165 80.8943 49.6911 81.0361 49.7498C81.1163 49.7818 81.3554 49.8529 81.7516 49.9649C82.3237 50.125 82.7234 50.2547 82.9505 50.3561C83.1777 50.4574 83.3553 50.605 83.4834 50.7988C83.6114 50.9926 83.6763 51.2326 83.6763 51.5206C83.6763 51.8086 83.5978 52.0664 83.4407 52.3136C83.2835 52.5625 83.0564 52.7545 82.7592 52.8896C82.4621 53.0247 82.1256 53.0941 81.7516 53.0941C81.1317 53.0941 80.6586 52.9607 80.3324 52.6905C80.0062 52.422 79.7996 52.0238 79.7091 51.4957L79.7108 51.4975Z" fill="#231F20"/>
<path d="M84.8291 47.0865V46.1175H85.6386V47.0865H84.8291ZM84.8291 52.982V48.0092H85.6386V52.982H84.8291Z" fill="#231F20"/>
<path d="M86.7538 50.4948C86.7538 49.5738 86.9997 48.8911 87.4916 48.4484C87.9032 48.0803 88.4036 47.8954 88.9945 47.8954C89.652 47.8954 90.1882 48.1195 90.605 48.5675C91.0217 49.0155 91.23 49.6342 91.23 50.4236C91.23 51.0637 91.1378 51.5669 90.9533 51.9331C90.7689 52.2994 90.5008 52.5856 90.149 52.7883C89.7971 52.991 89.4112 53.0923 88.9945 53.0923C88.325 53.0923 87.7853 52.8683 87.3737 52.422C86.9622 51.9758 86.7555 51.3322 86.7555 50.493L86.7538 50.4948ZM87.5855 50.4948C87.5855 51.1313 87.7187 51.6077 87.9852 51.926C88.2516 52.2425 88.588 52.4007 88.9928 52.4007C89.3975 52.4007 89.7288 52.2407 89.9953 51.9224C90.2617 51.6042 90.3949 51.1188 90.3949 50.4663C90.3949 49.8512 90.26 49.3853 89.9918 49.0689C89.7237 48.7524 89.3907 48.5942 88.9911 48.5942C88.5914 48.5942 88.2499 48.7524 87.9834 49.0671C87.717 49.3818 87.5838 49.8583 87.5838 50.4948H87.5855Z" fill="#231F20"/>
<path d="M94.1299 52.2283L94.2477 52.9732C94.0206 53.023 93.8157 53.0479 93.6364 53.0479C93.3426 53.0479 93.1138 52.9999 92.9532 52.9021C92.791 52.8061 92.6766 52.6781 92.6117 52.5198C92.5468 52.3616 92.5126 52.0309 92.5126 51.5242V48.6635H91.9183V48.0075H92.5126V46.7754L93.317 46.2704V48.0075H94.1316V48.6635H93.317V51.5722C93.317 51.8122 93.3306 51.9669 93.3597 52.0362C93.3887 52.1056 93.4348 52.1589 93.4997 52.1998C93.5646 52.2407 93.6568 52.2603 93.7764 52.2603C93.8669 52.2603 93.9847 52.2496 94.1316 52.2283H94.1299Z" fill="#231F20"/>
<path d="M95.1051 52.982V46.1175H95.9146V48.5799C96.292 48.1248 96.7685 47.8972 97.3457 47.8972C97.6992 47.8972 98.0067 47.9701 98.268 48.1141C98.5293 48.2599 98.7154 48.4608 98.8281 48.715C98.9408 48.9711 98.9972 49.3426 98.9972 49.8298V52.9803H98.1877V49.8298C98.1877 49.4084 98.1006 49.1026 97.9247 48.9106C97.7488 48.7186 97.5011 48.6226 97.1801 48.6226C96.941 48.6226 96.7138 48.6884 96.5038 48.8164C96.292 48.9462 96.1417 49.1222 96.0512 49.3426C95.9607 49.5649 95.9163 49.8707 95.9163 50.26V52.9803H95.1068L95.1051 52.982Z" fill="#231F20"/>
<path d="M103.683 51.3802L104.52 51.4886C104.389 51.9971 104.145 52.3918 103.788 52.6727C103.431 52.9536 102.975 53.0941 102.42 53.0941C101.721 53.0941 101.168 52.8701 100.758 52.422C100.348 51.974 100.143 51.3464 100.143 50.5374C100.143 49.7285 100.35 49.0511 100.763 48.5888C101.176 48.1266 101.714 47.8954 102.374 47.8954C103.033 47.8954 103.533 48.1212 103.94 48.5746C104.344 49.028 104.548 49.6645 104.548 50.4859C104.548 50.5357 104.548 50.6103 104.542 50.7099H100.98C101.011 51.2557 101.158 51.6753 101.426 51.9651C101.692 52.2549 102.025 52.4007 102.425 52.4007C102.722 52.4007 102.975 52.3189 103.185 52.1571C103.395 51.9953 103.56 51.7358 103.683 51.3802ZM101.026 50.0183H103.694C103.658 49.6005 103.555 49.2858 103.388 49.0778C103.13 48.7524 102.795 48.5906 102.385 48.5906C102.013 48.5906 101.701 48.7204 101.448 48.98C101.195 49.2396 101.055 49.5862 101.028 50.0201L101.026 50.0183Z" fill="#231F20"/>
<path d="M105.711 52.9821V48.0092H106.44V48.7631C106.626 48.411 106.797 48.1781 106.956 48.0661C107.113 47.9541 107.287 47.8972 107.475 47.8972C107.748 47.8972 108.025 47.9879 108.307 48.1692L108.028 48.9515C107.83 48.8306 107.632 48.7684 107.434 48.7684C107.256 48.7684 107.097 48.8235 106.957 48.9355C106.817 49.0475 106.717 49.2004 106.657 49.396C106.566 49.6965 106.522 50.0236 106.522 50.3792V52.9821H105.712H105.711Z" fill="#231F20"/>
<path d="M112.089 52.3687C111.789 52.6336 111.5 52.8221 111.223 52.9305C110.947 53.039 110.648 53.0941 110.33 53.0941C109.806 53.0941 109.403 52.9607 109.121 52.6941C108.839 52.4274 108.698 52.086 108.698 51.6717C108.698 51.4282 108.751 51.2059 108.858 51.005C108.964 50.8041 109.104 50.6423 109.277 50.5197C109.449 50.397 109.644 50.3063 109.859 50.2441C110.018 50.1996 110.257 50.1587 110.578 50.1178C111.232 50.0361 111.714 49.9401 112.021 49.828C112.024 49.7125 112.026 49.6396 112.026 49.6076C112.026 49.2644 111.949 49.0226 111.797 48.8822C111.591 48.6919 111.283 48.5959 110.875 48.5959C110.494 48.5959 110.212 48.6653 110.031 48.804C109.85 48.9426 109.715 49.188 109.628 49.5418L108.836 49.4298C108.908 49.0778 109.027 48.7915 109.191 48.5746C109.357 48.3577 109.594 48.1906 109.907 48.0732C110.219 47.9559 110.58 47.8972 110.991 47.8972C111.403 47.8972 111.731 47.947 111.985 48.0466C112.24 48.1461 112.427 48.2724 112.547 48.4235C112.667 48.5746 112.75 48.7666 112.8 48.9978C112.827 49.1418 112.841 49.3996 112.841 49.7747V50.8983C112.841 51.6824 112.858 52.1767 112.892 52.3847C112.926 52.5927 112.994 52.7918 113.097 52.9821H112.252C112.168 52.8078 112.113 52.6034 112.089 52.3687ZM112.021 50.4859C111.727 50.6103 111.287 50.717 110.699 50.8041C110.366 50.8539 110.13 50.9108 109.992 50.973C109.854 51.0353 109.748 51.1259 109.673 51.2468C109.598 51.3677 109.56 51.5011 109.56 51.6469C109.56 51.8709 109.642 52.0593 109.806 52.2087C109.97 52.358 110.209 52.4327 110.523 52.4327C110.837 52.4327 111.112 52.3616 111.355 52.2193C111.597 52.0771 111.777 51.8833 111.89 51.6362C111.977 51.4459 112.019 51.165 112.019 50.7935V50.4841L112.021 50.4859Z" fill="#231F20"/>
<path d="M114.279 54.888V48.0092H115.017V48.6546C115.191 48.4022 115.387 48.2119 115.606 48.0857C115.824 47.9594 116.091 47.8954 116.402 47.8954C116.81 47.8954 117.168 48.0057 117.481 48.2226C117.793 48.4413 118.027 48.7488 118.188 49.1471C118.347 49.5454 118.427 49.9809 118.427 50.4557C118.427 50.9641 118.34 51.4228 118.164 51.83C117.988 52.2371 117.734 52.55 117.399 52.767C117.064 52.9839 116.712 53.0923 116.343 53.0923C116.074 53.0923 115.831 53.0336 115.618 52.9145C115.404 52.7954 115.227 52.646 115.09 52.4647V54.8862H114.28L114.279 54.888ZM115.011 50.5232C115.011 51.1633 115.136 51.6362 115.385 51.942C115.635 52.2478 115.935 52.4007 116.289 52.4007C116.642 52.4007 116.957 52.2425 117.213 51.926C117.469 51.6095 117.597 51.1188 117.597 50.4539C117.597 49.7889 117.472 49.3462 117.221 49.0298C116.97 48.7151 116.671 48.5568 116.325 48.5568C115.978 48.5568 115.674 48.724 115.409 49.06C115.145 49.396 115.011 49.8832 115.011 50.5232Z" fill="#231F20"/>
<path d="M119.551 54.8969L119.46 54.1057C119.638 54.1555 119.792 54.1804 119.923 54.1804C120.102 54.1804 120.248 54.1484 120.355 54.0862C120.463 54.0239 120.552 53.9368 120.62 53.8248C120.671 53.7412 120.753 53.5314 120.868 53.1972C120.883 53.151 120.907 53.0816 120.939 52.991L119.127 48.0092H120L120.994 50.8895C121.122 51.2539 121.238 51.638 121.341 52.0415C121.433 51.654 121.544 51.277 121.674 50.909L122.695 48.011H123.504L121.687 53.0674C121.493 53.6132 121.341 53.9901 121.233 54.1964C121.09 54.4737 120.924 54.6782 120.738 54.808C120.552 54.9378 120.33 55.0018 120.072 55.0018C119.916 55.0018 119.742 54.968 119.549 54.8987L119.551 54.8969Z" fill="#231F20"/>
<path d="M132.158 52.1713C131.892 52.4807 131.599 52.7118 131.285 52.8665C130.971 53.0212 130.629 53.0976 130.264 53.0976C129.589 53.0976 129.055 52.8612 128.659 52.3865C128.338 51.9989 128.177 51.5669 128.177 51.0904C128.177 50.6654 128.309 50.2832 128.57 49.9401C128.833 49.5987 129.224 49.2982 129.746 49.0387C129.449 48.6831 129.251 48.395 129.152 48.1728C129.053 47.9506 129.004 47.7372 129.004 47.531C129.004 47.1185 129.159 46.7611 129.47 46.4571C129.781 46.1531 130.17 46.0002 130.641 46.0002C131.113 46.0002 131.459 46.1442 131.746 46.4304C132.033 46.7167 132.177 47.0634 132.177 47.4652C132.177 48.1177 131.762 48.6742 130.93 49.1364L132.114 50.7046C132.248 50.4308 132.353 50.1125 132.428 49.7498L133.268 49.9365C133.125 50.5357 132.93 51.0299 132.684 51.4157C132.986 51.8335 133.329 52.1856 133.714 52.47L133.169 53.1403C132.843 52.9216 132.505 52.598 132.156 52.1713H132.158ZM131.649 51.5064L130.165 49.5916C129.728 49.8636 129.432 50.1161 129.279 50.3472C129.125 50.5801 129.05 50.8095 129.05 51.037C129.05 51.3144 129.156 51.6042 129.369 51.9029C129.583 52.2033 129.883 52.3527 130.272 52.3527C130.515 52.3527 130.766 52.2745 131.026 52.1162C131.285 51.958 131.492 51.7553 131.649 51.5046V51.5064ZM130.512 48.5942C130.862 48.379 131.089 48.1906 131.193 48.027C131.297 47.8652 131.348 47.6857 131.348 47.4883C131.348 47.2536 131.277 47.0634 131.135 46.914C130.993 46.7665 130.816 46.6918 130.602 46.6918C130.389 46.6918 130.201 46.7647 130.056 46.9123C129.91 47.0598 129.837 47.2376 129.837 47.451C129.837 47.5576 129.863 47.6679 129.916 47.7852C129.969 47.9026 130.047 48.027 130.151 48.1568L130.512 48.5924V48.5942Z" fill="#231F20"/>
<path d="M138.663 52.982V46.1175H141.587C142.174 46.1175 142.622 46.1797 142.927 46.3024C143.233 46.4251 143.477 46.6438 143.66 46.9549C143.843 47.2678 143.935 47.6127 143.935 47.9896C143.935 48.4768 143.783 48.8875 143.481 49.2217C143.179 49.556 142.711 49.7676 142.077 49.8582C142.308 49.9738 142.483 50.0876 142.603 50.1996C142.857 50.4432 143.1 50.7472 143.327 51.1134L144.475 52.982H143.377L142.504 51.5544C142.249 51.1419 142.039 50.8272 141.874 50.6085C141.708 50.3898 141.561 50.2369 141.431 50.1498C141.302 50.0627 141.168 50.0022 141.033 49.9667C140.934 49.9454 140.772 49.9347 140.548 49.9347H139.536V52.982H138.663ZM139.536 49.1471H141.411C141.809 49.1471 142.121 49.1044 142.347 49.0191C142.572 48.9337 142.743 48.7968 142.859 48.6066C142.975 48.4163 143.035 48.2119 143.035 47.9914C143.035 47.6661 142.922 47.3994 142.695 47.1914C142.468 46.9816 142.111 46.8784 141.623 46.8784H139.536V49.1488V49.1471Z" fill="#231F20"/>
<path d="M148.654 51.3802L149.491 51.4886C149.359 51.9971 149.115 52.3918 148.758 52.6727C148.401 52.9536 147.945 53.0941 147.39 53.0941C146.691 53.0941 146.138 52.8701 145.728 52.422C145.318 51.974 145.113 51.3464 145.113 50.5374C145.113 49.7285 145.32 49.0511 145.733 48.5888C146.147 48.1266 146.685 47.8954 147.344 47.8954C148.003 47.8954 148.503 48.1212 148.91 48.5746C149.315 49.028 149.518 49.6645 149.518 50.4859C149.518 50.5357 149.518 50.6103 149.513 50.7099H145.95C145.981 51.2557 146.128 51.6753 146.396 51.9651C146.662 52.2549 146.995 52.4007 147.395 52.4007C147.692 52.4007 147.945 52.3189 148.155 52.1571C148.365 51.9953 148.531 51.7358 148.654 51.3802ZM145.996 50.0183H148.664C148.628 49.6005 148.526 49.2858 148.358 49.0778C148.1 48.7524 147.766 48.5906 147.356 48.5906C146.984 48.5906 146.671 48.7204 146.418 48.98C146.165 49.2396 146.025 49.5862 145.998 50.0201L145.996 50.0183Z" fill="#231F20"/>
<path d="M150.691 52.982V46.1175H151.501V48.5799C151.878 48.1248 152.355 47.8972 152.932 47.8972C153.285 47.8972 153.593 47.9701 153.854 48.1141C154.115 48.2599 154.301 48.4608 154.414 48.715C154.527 48.9711 154.583 49.3426 154.583 49.8298V52.9803H153.774V49.8298C153.774 49.4084 153.687 49.1026 153.511 48.9106C153.335 48.7186 153.087 48.6226 152.766 48.6226C152.527 48.6226 152.3 48.6884 152.09 48.8164C151.878 48.9462 151.728 49.1222 151.637 49.3426C151.547 49.5649 151.502 49.8707 151.502 50.26V52.9803H150.693L150.691 52.982Z" fill="#231F20"/>
<path d="M159.114 52.3687C158.814 52.6336 158.525 52.8221 158.248 52.9305C157.972 53.039 157.673 53.0941 157.355 53.0941C156.831 53.0941 156.428 52.9607 156.146 52.6941C155.864 52.4274 155.722 52.086 155.722 51.6717C155.722 51.4282 155.775 51.2059 155.883 51.005C155.989 50.8041 156.129 50.6423 156.301 50.5197C156.474 50.397 156.669 50.3063 156.884 50.2441C157.043 50.1996 157.282 50.1587 157.603 50.1178C158.257 50.0361 158.738 49.9401 159.046 49.828C159.049 49.7125 159.051 49.6396 159.051 49.6076C159.051 49.2644 158.974 49.0226 158.822 48.8822C158.615 48.6919 158.308 48.5959 157.9 48.5959C157.519 48.5959 157.237 48.6653 157.056 48.804C156.875 48.9426 156.74 49.188 156.653 49.5418L155.861 49.4298C155.932 49.0778 156.052 48.7915 156.216 48.5746C156.382 48.3577 156.619 48.1906 156.932 48.0732C157.244 47.9559 157.604 47.8972 158.016 47.8972C158.428 47.8972 158.755 47.947 159.01 48.0466C159.264 48.1461 159.452 48.2724 159.572 48.4235C159.691 48.5746 159.775 48.7666 159.825 48.9978C159.852 49.1418 159.866 49.3996 159.866 49.7747V50.8983C159.866 51.6824 159.883 52.1767 159.917 52.3847C159.951 52.5927 160.019 52.7918 160.122 52.9821H159.276C159.193 52.8078 159.138 52.6034 159.114 52.3687ZM159.046 50.4859C158.752 50.6103 158.311 50.717 157.724 50.8041C157.391 50.8539 157.155 50.9108 157.017 50.973C156.879 51.0353 156.773 51.1259 156.698 51.2468C156.622 51.3677 156.585 51.5011 156.585 51.6469C156.585 51.8709 156.667 52.0593 156.831 52.2087C156.995 52.358 157.234 52.4327 157.548 52.4327C157.862 52.4327 158.137 52.3616 158.38 52.2193C158.622 52.0771 158.802 51.8833 158.914 51.6362C159.001 51.4459 159.044 51.165 159.044 50.7935V50.4841L159.046 50.4859Z" fill="#231F20"/>
<path d="M162.052 52.982H161.3V46.1175H162.11V48.5657C162.451 48.1194 162.888 47.8954 163.418 47.8954C163.712 47.8954 163.99 47.9576 164.253 48.0803C164.516 48.203 164.731 48.3772 164.9 48.5995C165.069 48.8235 165.203 49.092 165.298 49.4066C165.394 49.7213 165.442 50.0591 165.442 50.4183C165.442 51.2699 165.238 51.9295 164.834 52.3936C164.429 52.8594 163.944 53.0905 163.377 53.0905C162.81 53.0905 162.371 52.8451 162.05 52.3544V52.9767L162.052 52.982ZM162.043 50.4574C162.043 51.053 162.122 51.485 162.277 51.7499C162.531 52.1838 162.876 52.4007 163.312 52.4007C163.665 52.4007 163.971 52.2407 164.229 51.9206C164.487 51.6006 164.617 51.1241 164.617 50.4894C164.617 49.8547 164.494 49.3604 164.246 49.0511C163.998 48.7417 163.7 48.587 163.35 48.587C162.999 48.587 162.69 48.747 162.432 49.0671C162.175 49.3871 162.045 49.8493 162.045 50.4556L162.043 50.4574Z" fill="#231F20"/>
<path d="M166.617 47.0865V46.1175H167.426V47.0865H166.617ZM166.617 52.982V48.0092H167.426V52.982H166.617Z" fill="#231F20"/>
<path d="M168.825 52.982V46.1175H169.634V52.982H168.825Z" fill="#231F20"/>
<path d="M171.079 47.0865V46.1175H171.889V47.0865H171.079ZM171.079 52.982V48.0092H171.889V52.982H171.079Z" fill="#231F20"/>
<path d="M175.072 52.2283L175.19 52.9732C174.963 53.023 174.758 53.0479 174.578 53.0479C174.285 53.0479 174.056 52.9999 173.895 52.9021C173.733 52.8061 173.619 52.6781 173.554 52.5198C173.489 52.3616 173.455 52.0309 173.455 51.5242V48.6635H172.86V48.0075H173.455V46.7754L174.259 46.2704V48.0075H175.074V48.6635H174.259V51.5722C174.259 51.8122 174.273 51.9669 174.302 52.0362C174.331 52.1056 174.377 52.1589 174.442 52.1998C174.507 52.2407 174.599 52.2603 174.718 52.2603C174.809 52.2603 174.927 52.2496 175.074 52.2283H175.072Z" fill="#231F20"/>
<path d="M179.166 52.3687C178.865 52.6336 178.576 52.8221 178.3 52.9305C178.023 53.039 177.724 53.0941 177.407 53.0941C176.882 53.0941 176.479 52.9607 176.197 52.6941C175.916 52.4274 175.774 52.086 175.774 51.6717C175.774 51.4282 175.827 51.2059 175.934 51.005C176.04 50.8041 176.18 50.6423 176.353 50.5197C176.525 50.397 176.72 50.3063 176.935 50.2441C177.094 50.1996 177.333 50.1587 177.654 50.1178C178.308 50.0361 178.79 49.9401 179.097 49.828C179.101 49.7125 179.102 49.6396 179.102 49.6076C179.102 49.2644 179.026 49.0226 178.874 48.8822C178.667 48.6919 178.36 48.5959 177.951 48.5959C177.571 48.5959 177.289 48.6653 177.108 48.804C176.927 48.9426 176.792 49.188 176.705 49.5418L175.912 49.4298C175.984 49.0778 176.104 48.7915 176.267 48.5746C176.433 48.3577 176.671 48.1906 176.983 48.0732C177.296 47.9559 177.656 47.8972 178.068 47.8972C178.479 47.8972 178.807 47.947 179.061 48.0466C179.316 48.1461 179.504 48.2724 179.623 48.4235C179.743 48.5746 179.827 48.7666 179.876 48.9978C179.903 49.1418 179.917 49.3996 179.917 49.7747V50.8983C179.917 51.6824 179.934 52.1767 179.968 52.3847C180.002 52.5927 180.071 52.7918 180.173 52.9821H179.328C179.244 52.8078 179.19 52.6034 179.166 52.3687ZM179.097 50.4859C178.804 50.6103 178.363 50.717 177.775 50.8041C177.442 50.8539 177.207 50.9108 177.068 50.973C176.93 51.0353 176.824 51.1259 176.749 51.2468C176.674 51.3677 176.636 51.5011 176.636 51.6469C176.636 51.8709 176.718 52.0593 176.882 52.2087C177.046 52.358 177.285 52.4327 177.6 52.4327C177.914 52.4327 178.189 52.3616 178.431 52.2193C178.674 52.0771 178.853 51.8833 178.966 51.6362C179.053 51.4459 179.096 51.165 179.096 50.7935V50.4841L179.097 50.4859Z" fill="#231F20"/>
<path d="M183.123 52.2283L183.241 52.9732C183.013 53.023 182.808 53.0479 182.629 53.0479C182.335 53.0479 182.107 52.9999 181.946 52.9021C181.784 52.8061 181.669 52.6781 181.604 52.5198C181.54 52.3616 181.505 52.0309 181.505 51.5242V48.6635H180.911V48.0075H181.505V46.7754L182.31 46.2704V48.0075H183.124V48.6635H182.31V51.5722C182.31 51.8122 182.323 51.9669 182.352 52.0362C182.381 52.1056 182.428 52.1589 182.492 52.1998C182.557 52.2407 182.65 52.2603 182.769 52.2603C182.86 52.2603 182.978 52.2496 183.124 52.2283H183.123Z" fill="#231F20"/>
<path d="M184.103 47.0865V46.1175H184.912V47.0865H184.103ZM184.103 52.982V48.0092H184.912V52.982H184.103Z" fill="#231F20"/>
<path d="M186.028 50.4948C186.028 49.5738 186.274 48.8911 186.765 48.4484C187.177 48.0803 187.677 47.8954 188.268 47.8954C188.926 47.8954 189.462 48.1195 189.879 48.5675C190.296 49.0155 190.504 49.6342 190.504 50.4236C190.504 51.0637 190.412 51.5669 190.227 51.9331C190.043 52.2994 189.775 52.5856 189.423 52.7883C189.071 52.991 188.685 53.0923 188.268 53.0923C187.599 53.0923 187.059 52.8683 186.648 52.422C186.236 51.9758 186.029 51.3322 186.029 50.493L186.028 50.4948ZM186.859 50.4948C186.859 51.1313 186.993 51.6077 187.259 51.926C187.525 52.2425 187.862 52.4007 188.267 52.4007C188.671 52.4007 189.003 52.2407 189.269 51.9224C189.536 51.6042 189.669 51.1188 189.669 50.4663C189.669 49.8512 189.534 49.3853 189.266 49.0689C188.998 48.7524 188.665 48.5942 188.265 48.5942C187.865 48.5942 187.524 48.7524 187.257 49.0671C186.991 49.3818 186.858 49.8583 186.858 50.4948H186.859Z" fill="#231F20"/>
<path d="M191.638 52.9821V48.0092H192.367V48.7168C192.717 48.171 193.224 47.8972 193.887 47.8972C194.176 47.8972 194.44 47.9506 194.681 48.059C194.922 48.1675 195.103 48.3079 195.223 48.4822C195.342 48.6564 195.426 48.8644 195.475 49.1044C195.506 49.2609 195.52 49.5329 195.52 49.924V52.9821H194.71V49.9578C194.71 49.6147 194.68 49.3569 194.616 49.188C194.553 49.0173 194.442 48.8822 194.282 48.7808C194.121 48.6795 193.933 48.6279 193.716 48.6279C193.371 48.6279 193.074 48.7417 192.823 48.9693C192.572 49.1969 192.447 49.6289 192.447 50.2654V52.9821H191.638Z" fill="#231F20"/>
<path d="M204.074 51.1597L204.87 51.2682C204.783 51.8389 204.561 52.2869 204.202 52.6087C203.844 52.9323 203.405 53.0941 202.882 53.0941C202.228 53.0941 201.704 52.8718 201.306 52.4274C200.908 51.9829 200.71 51.3446 200.71 50.5143C200.71 49.9774 200.795 49.508 200.966 49.1044C201.137 48.7026 201.396 48.4004 201.746 48.1977C202.095 47.9968 202.476 47.8954 202.887 47.8954C203.406 47.8954 203.83 48.0323 204.16 48.3044C204.489 48.5782 204.701 48.9658 204.793 49.4671L204.006 49.5934C203.931 49.2591 203.798 49.0084 203.608 48.8395C203.417 48.6706 203.188 48.5871 202.918 48.5871C202.51 48.5871 202.179 48.74 201.924 49.044C201.67 49.348 201.542 49.8298 201.542 50.4877C201.542 51.1455 201.664 51.6415 201.91 51.9438C202.156 52.246 202.477 52.3971 202.874 52.3971C203.191 52.3971 203.456 52.2958 203.669 52.0931C203.883 51.8904 204.018 51.5775 204.074 51.1562V51.1597Z" fill="#231F20"/>
<path d="M209.017 51.3802L209.853 51.4886C209.722 51.9971 209.478 52.3918 209.121 52.6727C208.764 52.9536 208.308 53.0941 207.753 53.0941C207.054 53.0941 206.501 52.8701 206.091 52.422C205.681 51.974 205.476 51.3464 205.476 50.5374C205.476 49.7285 205.683 49.0511 206.096 48.5888C206.51 48.1266 207.048 47.8954 207.707 47.8954C208.366 47.8954 208.866 48.1212 209.273 48.5746C209.678 49.028 209.881 49.6645 209.881 50.4859C209.881 50.5357 209.881 50.6103 209.876 50.7099H206.313C206.344 51.2557 206.491 51.6753 206.759 51.9651C207.025 52.2549 207.358 52.4007 207.758 52.4007C208.055 52.4007 208.308 52.3189 208.518 52.1571C208.728 51.9953 208.894 51.7358 209.017 51.3802ZM206.359 50.0183H209.027C208.991 49.6005 208.889 49.2858 208.721 49.0778C208.463 48.7524 208.129 48.5906 207.719 48.5906C207.346 48.5906 207.034 48.7204 206.781 48.98C206.528 49.2396 206.388 49.5862 206.361 50.0201L206.359 50.0183Z" fill="#231F20"/>
<path d="M211.054 52.9821V48.0092H211.783V48.7168C212.133 48.171 212.641 47.8972 213.303 47.8972C213.592 47.8972 213.857 47.9506 214.097 48.059C214.338 48.1675 214.519 48.3079 214.639 48.4822C214.758 48.6564 214.842 48.8644 214.892 49.1044C214.922 49.2609 214.936 49.5329 214.936 49.924V52.9821H214.126V49.9578C214.126 49.6147 214.096 49.3569 214.033 49.188C213.969 49.0173 213.858 48.8822 213.698 48.7808C213.537 48.6795 213.349 48.6279 213.132 48.6279C212.788 48.6279 212.49 48.7417 212.239 48.9693C211.988 49.1969 211.864 49.6289 211.864 50.2654V52.9821H211.054Z" fill="#231F20"/>
<path d="M218.13 52.2283L218.247 52.9732C218.02 53.023 217.815 53.0479 217.636 53.0479C217.342 53.0479 217.113 52.9999 216.953 52.9021C216.791 52.8061 216.676 52.6781 216.611 52.5198C216.546 52.3616 216.512 52.0309 216.512 51.5242V48.6635H215.918V48.0075H216.512V46.7754L217.317 46.2704V48.0075H218.131V48.6635H217.317V51.5722C217.317 51.8122 217.33 51.9669 217.359 52.0362C217.388 52.1056 217.435 52.1589 217.499 52.1998C217.564 52.2407 217.657 52.2603 217.776 52.2603C217.867 52.2603 217.984 52.2496 218.131 52.2283H218.13Z" fill="#231F20"/>
<path d="M222.375 51.3802L223.212 51.4886C223.081 51.9971 222.836 52.3918 222.479 52.6727C222.122 52.9536 221.666 53.0941 221.111 53.0941C220.413 53.0941 219.86 52.8701 219.45 52.422C219.04 51.974 218.835 51.3464 218.835 50.5374C218.835 49.7285 219.042 49.0511 219.455 48.5888C219.868 48.1266 220.406 47.8954 221.065 47.8954C221.725 47.8954 222.225 48.1212 222.631 48.5746C223.036 49.028 223.239 49.6645 223.239 50.4859C223.239 50.5357 223.239 50.6103 223.234 50.7099H219.672C219.702 51.2557 219.849 51.6753 220.117 51.9651C220.384 52.2549 220.717 52.4007 221.117 52.4007C221.414 52.4007 221.666 52.3189 221.877 52.1571C222.087 51.9953 222.252 51.7358 222.375 51.3802ZM219.718 50.0183H222.385C222.35 49.6005 222.247 49.2858 222.08 49.0778C221.822 48.7524 221.487 48.5906 221.077 48.5906C220.705 48.5906 220.392 48.7204 220.14 48.98C219.887 49.2396 219.747 49.5862 219.72 50.0201L219.718 50.0183Z" fill="#231F20"/>
<path d="M224.404 52.9821V48.0092H225.133V48.7631C225.32 48.411 225.49 48.1781 225.649 48.0661C225.806 47.9541 225.98 47.8972 226.168 47.8972C226.442 47.8972 226.718 47.9879 227 48.1692L226.722 48.9515C226.524 48.8306 226.325 48.7684 226.127 48.7684C225.95 48.7684 225.791 48.8235 225.651 48.9355C225.511 49.0475 225.41 49.2004 225.35 49.396C225.26 49.6965 225.215 50.0236 225.215 50.3792V52.9821H224.406H224.404Z" fill="#231F20"/>
<path d="M146.415 19.3154C143.43 22.6241 141.749 26.4733 141.78 30.5501C141.811 34.5859 143.619 38.4583 146.599 41.6976C147.624 40.558 148.512 39.3365 149.214 38.0849C150.549 35.7043 151.268 33.1405 151.25 30.4736C151.219 26.4093 149.434 22.569 146.417 19.3154H146.415Z" fill="#406CB4"/>
<path d="M129.827 5.07423C130.343 9.58126 132.095 13.3967 135.114 15.9924C138.105 18.5633 142.116 19.6105 146.415 19.3154C146.235 17.765 145.906 16.2716 145.438 14.9079C144.545 12.3121 143.12 10.0915 141.144 8.39183C138.135 5.80495 134.161 4.75954 129.827 5.07423Z" fill="#406CB4"/>
<path d="M146.415 19.3154C146.931 14.8084 148.683 10.9929 151.702 8.39718C154.693 5.82631 158.704 4.77911 163.003 5.07425C162.824 6.62459 162.494 8.11805 162.026 9.48171C161.133 12.0775 159.708 14.2981 157.733 15.9978C154.723 18.5847 150.749 19.6301 146.415 19.3154Z" fill="#406CB4"/>
<path d="M146.401 6.94103C144.564 6.93392 143.073 5.37112 143.079 3.4563C143.088 1.54326 144.589 -0.00708732 146.428 2.43693e-05C148.266 0.00713605 149.757 1.56993 149.75 3.48475C149.743 5.39779 148.242 6.94992 146.403 6.94281L146.401 6.94103Z" fill="#406CB4"/>
</g>
<defs>
<clipPath id="clip0_2005_2">
<rect width="227" height="55" fill="white"/>
</clipPath>
</defs>
</svg>
