<svg width="235" height="63" viewBox="0 0 235 63" fill="none" xmlns="http://www.w3.org/2000/svg">
<g clip-path="url(#clip0_2005_2)" filter="url(#filter0_d_2005_2)">
<path d="M20.7008 6.22455L32.7102 40.8016H28.5824L24.7363 29.7162H11.9277C11.803 30.0754 11.2634 31.6542 10.3087 34.4526C9.35401 37.2528 8.64356 39.3686 8.17391 40.8016H4L15.9155 6.22455H20.7008ZM13.2427 25.6128H23.3752C22.687 23.6588 21.7955 21.0382 20.7008 17.7508C19.6061 14.4634 18.8085 12.0864 18.3081 10.6213C16.4944 16.0582 14.8054 21.056 13.241 25.6146L13.2427 25.6128Z" fill="#7D8E39"/>
<path d="M58.932 40.8016L48.1898 26.6884H43.0766V40.8016H39.1367V6.22455H51.8018C55.1799 6.22455 57.9005 7.07084 59.9635 8.76342C62.0283 10.456 63.0905 13.0607 63.1537 16.5774C63.1537 19.8328 62.2315 22.2827 60.3853 23.9273C58.5392 25.5719 56.1004 26.4751 53.0673 26.6369L63.7634 40.7998H58.932V40.8016ZM43.0766 22.8783H51.8497C54.2252 22.8783 56.0475 22.3894 57.3147 21.4133C58.5819 20.4373 59.2138 18.8247 59.2138 16.5792C59.2138 12.4117 56.7579 10.328 51.848 10.328H43.0749V22.8783H43.0766Z" fill="#7D8E39"/>
<path d="M70.0038 30.3989V16.5774C70.0038 13.1584 71.3172 10.4969 73.9438 8.59272C76.5704 6.68856 79.6821 5.7356 83.2787 5.7356C85.5621 5.7356 87.6883 6.12674 89.6591 6.90725C91.63 7.68775 93.2712 8.91807 94.5845 10.5947C95.8978 12.2712 96.5553 14.2661 96.5553 16.5774V30.3989C96.5553 32.7102 95.8978 34.7139 94.5845 36.4065C93.2712 38.0991 91.6283 39.3365 89.6591 40.1188C87.6883 40.9011 85.5621 41.2905 83.2787 41.2905C79.6821 41.2905 76.5704 40.3304 73.9438 38.4085C71.3172 36.4883 70.0038 33.8179 70.0038 30.3989ZM73.8977 16.5774V30.3491C73.8977 32.4986 74.8199 34.1752 76.666 35.3789C78.5105 36.5843 80.7153 37.1852 83.2804 37.1852C85.8456 37.1852 88.0111 36.5825 89.8709 35.3789C91.7307 34.1752 92.6615 32.4969 92.6615 30.3491V16.5774C92.6615 14.3301 91.7393 12.6304 89.8931 11.4729C88.047 10.3173 85.8268 9.73947 83.2326 9.73947C80.6675 9.77148 78.4712 10.3671 76.6421 11.5227C74.8131 12.6784 73.8977 14.3638 73.8977 16.5774Z" fill="#7D8E39"/>
<path d="M104.389 30.3491V16.5276C104.389 14.2483 105.006 12.2712 106.242 10.5947C107.477 8.91808 109.033 7.68953 110.91 6.90725C112.786 6.12496 114.803 5.7356 116.96 5.7356C119.43 5.7356 121.746 6.34542 123.903 7.56686C126.061 8.78829 127.655 10.5218 128.688 12.7673L125.122 14.4279C124.434 12.9308 123.324 11.7752 121.792 10.9609C120.26 10.1466 118.617 9.73947 116.866 9.73947C114.552 9.73947 112.542 10.3262 110.838 11.4978C109.133 12.6695 108.281 14.3141 108.281 16.4298V30.3474C108.281 32.4969 109.14 34.1735 110.862 35.3771C112.581 36.5825 114.614 37.1835 116.96 37.1835C119.307 37.1835 121.346 36.5808 123.083 35.3771C124.818 34.1735 125.687 32.4951 125.687 30.3474V26.8804H115.883V22.8268H129.581V30.3474C129.581 33.7983 128.338 36.4847 125.851 38.4049C123.365 40.3268 120.402 41.2869 116.962 41.2869C113.522 41.2869 110.566 40.3268 108.095 38.4049C105.624 36.4847 104.389 33.7983 104.389 30.3474V30.3491Z" fill="#7D8E39"/>
<path d="M182.214 6.22455L194.224 40.8016H190.096L186.25 29.7162H173.443C173.318 30.0754 172.779 31.6542 171.824 34.4526C170.869 37.2528 170.159 39.3686 169.689 40.8016H165.514L177.429 6.22455H182.214ZM174.756 25.6128H184.889C184.201 23.6588 183.309 21.0382 182.214 17.7508C181.12 14.4634 180.322 12.0864 179.822 10.6213C178.008 16.0582 176.319 21.056 174.755 25.6146L174.756 25.6128Z" fill="#7D8E39"/>
<path d="M219.51 10.3262H208.862V40.7998H204.922V10.3262H194.273V6.22455H219.512V10.3262H219.51Z" fill="#7D8E39"/>
<path d="M230.346 6.22455V40.8016H226.452V6.22455H230.346Z" fill="#7D8E39"/>
<path d="M67.7119 52.982V46.1175H70.1985C70.6357 46.1175 70.9704 46.1388 71.201 46.1833C71.5255 46.2402 71.7953 46.3468 72.0156 46.5033C72.2342 46.6615 72.4101 46.882 72.5433 47.1665C72.6765 47.4509 72.7431 47.7621 72.7431 48.1034C72.7431 48.6866 72.5655 49.1809 72.2086 49.5844C71.8517 49.988 71.2078 50.1907 70.2754 50.1907H68.5846V52.982H67.7119ZM68.5846 49.3818H70.289C70.8526 49.3818 71.2522 49.2733 71.4896 49.0546C71.727 48.8359 71.8448 48.5284 71.8448 48.1319C71.8448 47.8456 71.7748 47.5985 71.6365 47.394C71.4964 47.1896 71.3137 47.0545 71.0849 46.9887C70.938 46.9478 70.6664 46.9282 70.2702 46.9282H68.5829V49.3818H68.5846Z" fill="#231F20"/>
<path d="M73.937 52.982V46.1175H74.7465V48.5799C75.1239 48.1248 75.6004 47.8972 76.1776 47.8972C76.5311 47.8972 76.8385 47.9701 77.0998 48.1141C77.3611 48.2599 77.5473 48.4608 77.66 48.715C77.7727 48.9711 77.8291 49.3426 77.8291 49.8298V52.9803H77.0196V49.8298C77.0196 49.4084 76.9325 49.1026 76.7566 48.9106C76.5807 48.7186 76.333 48.6226 76.012 48.6226C75.7729 48.6226 75.5457 48.6884 75.3357 48.8164C75.1239 48.9462 74.9736 49.1222 74.8831 49.3426C74.7926 49.5649 74.7482 49.8707 74.7482 50.26V52.9803H73.9387L73.937 52.982Z" fill="#231F20"/>
<path d="M79.2073 54.8969L79.1167 54.1057C79.2944 54.1555 79.4481 54.1804 79.5796 54.1804C79.7589 54.1804 79.904 54.1484 80.0116 54.0862C80.1192 54.0239 80.208 53.9368 80.2764 53.8248C80.3276 53.7412 80.4096 53.5314 80.524 53.1972C80.5394 53.151 80.5633 53.0816 80.5957 52.991L78.7837 48.0092H79.6564L80.6504 50.8895C80.7785 51.2539 80.8946 51.638 80.9971 52.0415C81.0893 51.654 81.2003 51.277 81.3301 50.909L82.3514 48.011H83.1609L81.3437 53.0674C81.1491 53.6132 80.9971 53.9901 80.8895 54.1964C80.746 54.4737 80.5803 54.6782 80.3942 54.808C80.208 54.9378 79.986 55.0018 79.7281 55.0018C79.5727 55.0018 79.3985 54.968 79.2055 54.8987L79.2073 54.8969Z" fill="#231F20"/>
<path d="M83.7108 51.4975L84.5117 51.3659C84.5562 51.7002 84.6825 51.9562 84.8875 52.134C85.0924 52.3118 85.3793 52.4007 85.7482 52.4007C86.1171 52.4007 86.3955 52.3225 86.5765 52.1642C86.7558 52.006 86.8463 51.8211 86.8463 51.6095C86.8463 51.4193 86.7661 51.2699 86.6072 51.1597C86.4962 51.085 86.2196 50.989 85.779 50.8735C85.1846 50.717 84.773 50.5819 84.5442 50.4681C84.3153 50.3543 84.1412 50.1961 84.0216 49.9952C83.9038 49.7943 83.844 49.572 83.844 49.3285C83.844 49.1062 83.8935 48.9017 83.9909 48.7133C84.0882 48.5248 84.2214 48.3684 84.3888 48.2421C84.5152 48.1461 84.6859 48.0643 84.9045 47.9968C85.1214 47.9292 85.3554 47.8954 85.6048 47.8954C85.9788 47.8954 86.3084 47.9523 86.5919 48.0643C86.8754 48.1764 87.0837 48.3293 87.2186 48.5213C87.3536 48.7133 87.4458 48.9693 87.497 49.2911L86.7046 49.4031C86.6687 49.1471 86.5645 48.948 86.3921 48.804C86.2196 48.66 85.9754 48.5888 85.6611 48.5888C85.2888 48.5888 85.0241 48.6528 84.8653 48.7808C84.7064 48.9089 84.6262 49.0582 84.6262 49.2307C84.6262 49.3409 84.6586 49.4387 84.7252 49.5258C84.7918 49.6165 84.8943 49.6911 85.0361 49.7498C85.1163 49.7818 85.3554 49.8529 85.7516 49.9649C86.3237 50.125 86.7234 50.2547 86.9505 50.3561C87.1777 50.4574 87.3553 50.605 87.4834 50.7988C87.6114 50.9926 87.6763 51.2326 87.6763 51.5206C87.6763 51.8086 87.5978 52.0664 87.4407 52.3136C87.2835 52.5625 87.0564 52.7545 86.7592 52.8896C86.4621 53.0247 86.1256 53.0941 85.7516 53.0941C85.1317 53.0941 84.6586 52.9607 84.3324 52.6905C84.0062 52.422 83.7996 52.0238 83.7091 51.4957L83.7108 51.4975Z" fill="#231F20"/>
<path d="M88.8291 47.0865V46.1175H89.6386V47.0865H88.8291ZM88.8291 52.982V48.0092H89.6386V52.982H88.8291Z" fill="#231F20"/>
<path d="M90.7538 50.4948C90.7538 49.5738 90.9997 48.8911 91.4916 48.4484C91.9032 48.0803 92.4036 47.8954 92.9945 47.8954C93.652 47.8954 94.1882 48.1195 94.605 48.5675C95.0217 49.0155 95.23 49.6342 95.23 50.4236C95.23 51.0637 95.1378 51.5669 94.9533 51.9331C94.7689 52.2994 94.5008 52.5856 94.149 52.7883C93.7971 52.991 93.4112 53.0923 92.9945 53.0923C92.325 53.0923 91.7853 52.8683 91.3737 52.422C90.9622 51.9758 90.7555 51.3322 90.7555 50.493L90.7538 50.4948ZM91.5855 50.4948C91.5855 51.1313 91.7187 51.6077 91.9852 51.926C92.2516 52.2425 92.588 52.4007 92.9928 52.4007C93.3975 52.4007 93.7288 52.2407 93.9953 51.9224C94.2617 51.6042 94.3949 51.1188 94.3949 50.4663C94.3949 49.8512 94.26 49.3853 93.9918 49.0689C93.7237 48.7524 93.3907 48.5942 92.9911 48.5942C92.5914 48.5942 92.2499 48.7524 91.9834 49.0671C91.717 49.3818 91.5838 49.8583 91.5838 50.4948H91.5855Z" fill="#231F20"/>
<path d="M98.1299 52.2283L98.2477 52.9732C98.0206 53.023 97.8157 53.0479 97.6364 53.0479C97.3426 53.0479 97.1138 52.9999 96.9532 52.9021C96.791 52.8061 96.6766 52.6781 96.6117 52.5198C96.5468 52.3616 96.5126 52.0309 96.5126 51.5242V48.6635H95.9183V48.0075H96.5126V46.7754L97.317 46.2704V48.0075H98.1316V48.6635H97.317V51.5722C97.317 51.8122 97.3306 51.9669 97.3597 52.0362C97.3887 52.1056 97.4348 52.1589 97.4997 52.1998C97.5646 52.2407 97.6568 52.2603 97.7764 52.2603C97.8669 52.2603 97.9847 52.2496 98.1316 52.2283H98.1299Z" fill="#231F20"/>
<path d="M99.1051 52.982V46.1175H99.9146V48.5799C100.292 48.1248 100.768 47.8972 101.346 47.8972C101.699 47.8972 102.007 47.9701 102.268 48.1141C102.529 48.2599 102.715 48.4608 102.828 48.715C102.941 48.9711 102.997 49.3426 102.997 49.8298V52.9803H102.188V49.8298C102.188 49.4084 102.101 49.1026 101.925 48.9106C101.749 48.7186 101.501 48.6226 101.18 48.6226C100.941 48.6226 100.714 48.6884 100.504 48.8164C100.292 48.9462 100.142 49.1222 100.051 49.3426C99.9607 49.5649 99.9163 49.8707 99.9163 50.26V52.9803H99.1068L99.1051 52.982Z" fill="#231F20"/>
<path d="M107.683 51.3802L108.52 51.4886C108.389 51.9971 108.145 52.3918 107.788 52.6727C107.431 52.9536 106.975 53.0941 106.42 53.0941C105.721 53.0941 105.168 52.8701 104.758 52.422C104.348 51.974 104.143 51.3464 104.143 50.5374C104.143 49.7285 104.35 49.0511 104.763 48.5888C105.176 48.1266 105.714 47.8954 106.374 47.8954C107.033 47.8954 107.533 48.1212 107.94 48.5746C108.344 49.028 108.548 49.6645 108.548 50.4859C108.548 50.5357 108.548 50.6103 108.542 50.7099H104.98C105.011 51.2557 105.158 51.6753 105.426 51.9651C105.692 52.2549 106.025 52.4007 106.425 52.4007C106.722 52.4007 106.975 52.3189 107.185 52.1571C107.395 51.9953 107.56 51.7358 107.683 51.3802ZM105.026 50.0183H107.694C107.658 49.6005 107.555 49.2858 107.388 49.0778C107.13 48.7524 106.795 48.5906 106.385 48.5906C106.013 48.5906 105.701 48.7204 105.448 48.98C105.195 49.2396 105.055 49.5862 105.028 50.0201L105.026 50.0183Z" fill="#231F20"/>
<path d="M109.711 52.9821V48.0092H110.44V48.7631C110.626 48.411 110.797 48.1781 110.956 48.0661C111.113 47.9541 111.287 47.8972 111.475 47.8972C111.748 47.8972 112.025 47.9879 112.307 48.1692L112.028 48.9515C111.83 48.8306 111.632 48.7684 111.434 48.7684C111.256 48.7684 111.097 48.8235 110.957 48.9355C110.817 49.0475 110.717 49.2004 110.657 49.396C110.566 49.6965 110.522 50.0236 110.522 50.3792V52.9821H109.712H109.711Z" fill="#231F20"/>
<path d="M116.089 52.3687C115.789 52.6336 115.5 52.8221 115.223 52.9305C114.947 53.039 114.648 53.0941 114.33 53.0941C113.806 53.0941 113.403 52.9607 113.121 52.6941C112.839 52.4274 112.698 52.086 112.698 51.6717C112.698 51.4282 112.751 51.2059 112.858 51.005C112.964 50.8041 113.104 50.6423 113.277 50.5197C113.449 50.397 113.644 50.3063 113.859 50.2441C114.018 50.1996 114.257 50.1587 114.578 50.1178C115.232 50.0361 115.714 49.9401 116.021 49.828C116.024 49.7125 116.026 49.6396 116.026 49.6076C116.026 49.2644 115.949 49.0226 115.797 48.8822C115.591 48.6919 115.283 48.5959 114.875 48.5959C114.494 48.5959 114.212 48.6653 114.031 48.804C113.85 48.9426 113.715 49.188 113.628 49.5418L112.836 49.4298C112.908 49.0778 113.027 48.7915 113.191 48.5746C113.357 48.3577 113.594 48.1906 113.907 48.0732C114.219 47.9559 114.58 47.8972 114.991 47.8972C115.403 47.8972 115.731 47.947 115.985 48.0466C116.24 48.1461 116.427 48.2724 116.547 48.4235C116.667 48.5746 116.75 48.7666 116.8 48.9978C116.827 49.1418 116.841 49.3996 116.841 49.7747V50.8983C116.841 51.6824 116.858 52.1767 116.892 52.3847C116.926 52.5927 116.994 52.7918 117.097 52.9821H116.252C116.168 52.8078 116.113 52.6034 116.089 52.3687ZM116.021 50.4859C115.727 50.6103 115.287 50.717 114.699 50.8041C114.366 50.8539 114.13 50.9108 113.992 50.973C113.854 51.0353 113.748 51.1259 113.673 51.2468C113.598 51.3677 113.56 51.5011 113.56 51.6469C113.56 51.8709 113.642 52.0593 113.806 52.2087C113.97 52.358 114.209 52.4327 114.523 52.4327C114.837 52.4327 115.112 52.3616 115.355 52.2193C115.597 52.0771 115.777 51.8833 115.89 51.6362C115.977 51.4459 116.019 51.165 116.019 50.7935V50.4841L116.021 50.4859Z" fill="#231F20"/>
<path d="M118.279 54.888V48.0092H119.017V48.6546C119.191 48.4022 119.387 48.2119 119.606 48.0857C119.824 47.9594 120.091 47.8954 120.402 47.8954C120.81 47.8954 121.168 48.0057 121.481 48.2226C121.793 48.4413 122.027 48.7488 122.188 49.1471C122.347 49.5454 122.427 49.9809 122.427 50.4557C122.427 50.9641 122.34 51.4228 122.164 51.83C121.988 52.2371 121.734 52.55 121.399 52.767C121.064 52.9839 120.712 53.0923 120.343 53.0923C120.074 53.0923 119.831 53.0336 119.618 52.9145C119.404 52.7954 119.227 52.646 119.09 52.4647V54.8862H118.28L118.279 54.888ZM119.011 50.5232C119.011 51.1633 119.136 51.6362 119.385 51.942C119.635 52.2478 119.935 52.4007 120.289 52.4007C120.642 52.4007 120.957 52.2425 121.213 51.926C121.469 51.6095 121.597 51.1188 121.597 50.4539C121.597 49.7889 121.472 49.3462 121.221 49.0298C120.97 48.7151 120.671 48.5568 120.325 48.5568C119.978 48.5568 119.674 48.724 119.409 49.06C119.145 49.396 119.011 49.8832 119.011 50.5232Z" fill="#231F20"/>
<path d="M123.551 54.8969L123.46 54.1057C123.638 54.1555 123.792 54.1804 123.923 54.1804C124.102 54.1804 124.248 54.1484 124.355 54.0862C124.463 54.0239 124.552 53.9368 124.62 53.8248C124.671 53.7412 124.753 53.5314 124.868 53.1972C124.883 53.151 124.907 53.0816 124.939 52.991L123.127 48.0092H124L124.994 50.8895C125.122 51.2539 125.238 51.638 125.341 52.0415C125.433 51.654 125.544 51.277 125.674 50.909L126.695 48.011H127.504L125.687 53.0674C125.493 53.6132 125.341 53.9901 125.233 54.1964C125.09 54.4737 124.924 54.6782 124.738 54.808C124.552 54.9378 124.33 55.0018 124.072 55.0018C123.916 55.0018 123.742 54.968 123.549 54.8987L123.551 54.8969Z" fill="#231F20"/>
<path d="M136.158 52.1713C135.892 52.4807 135.599 52.7118 135.285 52.8665C134.971 53.0212 134.629 53.0976 134.264 53.0976C133.589 53.0976 133.055 52.8612 132.659 52.3865C132.338 51.9989 132.177 51.5669 132.177 51.0904C132.177 50.6654 132.309 50.2832 132.57 49.9401C132.833 49.5987 133.224 49.2982 133.746 49.0387C133.449 48.6831 133.251 48.395 133.152 48.1728C133.053 47.9506 133.004 47.7372 133.004 47.531C133.004 47.1185 133.159 46.7611 133.47 46.4571C133.781 46.1531 134.17 46.0002 134.641 46.0002C135.113 46.0002 135.459 46.1442 135.746 46.4304C136.033 46.7167 136.177 47.0634 136.177 47.4652C136.177 48.1177 135.762 48.6742 134.93 49.1364L136.114 50.7046C136.248 50.4308 136.353 50.1125 136.428 49.7498L137.268 49.9365C137.125 50.5357 136.93 51.0299 136.684 51.4157C136.986 51.8335 137.329 52.1856 137.714 52.47L137.169 53.1403C136.843 52.9216 136.505 52.598 136.156 52.1713H136.158ZM135.649 51.5064L134.165 49.5916C133.728 49.8636 133.432 50.1161 133.279 50.3472C133.125 50.5801 133.05 50.8095 133.05 51.037C133.05 51.3144 133.156 51.6042 133.369 51.9029C133.583 52.2033 133.883 52.3527 134.272 52.3527C134.515 52.3527 134.766 52.2745 135.026 52.1162C135.285 51.958 135.492 51.7553 135.649 51.5046V51.5064ZM134.512 48.5942C134.862 48.379 135.089 48.1906 135.193 48.027C135.297 47.8652 135.348 47.6857 135.348 47.4883C135.348 47.2536 135.277 47.0634 135.135 46.914C134.993 46.7665 134.816 46.6918 134.602 46.6918C134.389 46.6918 134.201 46.7647 134.056 46.9123C133.91 47.0598 133.837 47.2376 133.837 47.451C133.837 47.5576 133.863 47.6679 133.916 47.7852C133.969 47.9026 134.047 48.027 134.151 48.1568L134.512 48.5924V48.5942Z" fill="#231F20"/>
<path d="M142.663 52.982V46.1175H145.587C146.174 46.1175 146.622 46.1797 146.927 46.3024C147.233 46.4251 147.477 46.6438 147.66 46.9549C147.843 47.2678 147.935 47.6127 147.935 47.9896C147.935 48.4768 147.783 48.8875 147.481 49.2217C147.179 49.556 146.711 49.7676 146.077 49.8582C146.308 49.9738 146.483 50.0876 146.603 50.1996C146.857 50.4432 147.1 50.7472 147.327 51.1134L148.475 52.982H147.377L146.504 51.5544C146.249 51.1419 146.039 50.8272 145.874 50.6085C145.708 50.3898 145.561 50.2369 145.431 50.1498C145.302 50.0627 145.168 50.0022 145.033 49.9667C144.934 49.9454 144.772 49.9347 144.548 49.9347H143.536V52.982H142.663ZM143.536 49.1471H145.411C145.809 49.1471 146.121 49.1044 146.347 49.0191C146.572 48.9337 146.743 48.7968 146.859 48.6066C146.975 48.4163 147.035 48.2119 147.035 47.9914C147.035 47.6661 146.922 47.3994 146.695 47.1914C146.468 46.9816 146.111 46.8784 145.623 46.8784H143.536V49.1488V49.1471Z" fill="#231F20"/>
<path d="M152.654 51.3802L153.491 51.4886C153.359 51.9971 153.115 52.3918 152.758 52.6727C152.401 52.9536 151.945 53.0941 151.39 53.0941C150.691 53.0941 150.138 52.8701 149.728 52.422C149.318 51.974 149.113 51.3464 149.113 50.5374C149.113 49.7285 149.32 49.0511 149.733 48.5888C150.147 48.1266 150.685 47.8954 151.344 47.8954C152.003 47.8954 152.503 48.1212 152.91 48.5746C153.315 49.028 153.518 49.6645 153.518 50.4859C153.518 50.5357 153.518 50.6103 153.513 50.7099H149.95C149.981 51.2557 150.128 51.6753 150.396 51.9651C150.662 52.2549 150.995 52.4007 151.395 52.4007C151.692 52.4007 151.945 52.3189 152.155 52.1571C152.365 51.9953 152.531 51.7358 152.654 51.3802ZM149.996 50.0183H152.664C152.628 49.6005 152.526 49.2858 152.358 49.0778C152.1 48.7524 151.766 48.5906 151.356 48.5906C150.984 48.5906 150.671 48.7204 150.418 48.98C150.165 49.2396 150.025 49.5862 149.998 50.0201L149.996 50.0183Z" fill="#231F20"/>
<path d="M154.691 52.982V46.1175H155.501V48.5799C155.878 48.1248 156.355 47.8972 156.932 47.8972C157.285 47.8972 157.593 47.9701 157.854 48.1141C158.115 48.2599 158.301 48.4608 158.414 48.715C158.527 48.9711 158.583 49.3426 158.583 49.8298V52.9803H157.774V49.8298C157.774 49.4084 157.687 49.1026 157.511 48.9106C157.335 48.7186 157.087 48.6226 156.766 48.6226C156.527 48.6226 156.3 48.6884 156.09 48.8164C155.878 48.9462 155.728 49.1222 155.637 49.3426C155.547 49.5649 155.502 49.8707 155.502 50.26V52.9803H154.693L154.691 52.982Z" fill="#231F20"/>
<path d="M163.114 52.3687C162.814 52.6336 162.525 52.8221 162.248 52.9305C161.972 53.039 161.673 53.0941 161.355 53.0941C160.831 53.0941 160.428 52.9607 160.146 52.6941C159.864 52.4274 159.722 52.086 159.722 51.6717C159.722 51.4282 159.775 51.2059 159.883 51.005C159.989 50.8041 160.129 50.6423 160.301 50.5197C160.474 50.397 160.669 50.3063 160.884 50.2441C161.043 50.1996 161.282 50.1587 161.603 50.1178C162.257 50.0361 162.738 49.9401 163.046 49.828C163.049 49.7125 163.051 49.6396 163.051 49.6076C163.051 49.2644 162.974 49.0226 162.822 48.8822C162.615 48.6919 162.308 48.5959 161.9 48.5959C161.519 48.5959 161.237 48.6653 161.056 48.804C160.875 48.9426 160.74 49.188 160.653 49.5418L159.861 49.4298C159.932 49.0778 160.052 48.7915 160.216 48.5746C160.382 48.3577 160.619 48.1906 160.932 48.0732C161.244 47.9559 161.604 47.8972 162.016 47.8972C162.428 47.8972 162.755 47.947 163.01 48.0466C163.264 48.1461 163.452 48.2724 163.572 48.4235C163.691 48.5746 163.775 48.7666 163.825 48.9978C163.852 49.1418 163.866 49.3996 163.866 49.7747V50.8983C163.866 51.6824 163.883 52.1767 163.917 52.3847C163.951 52.5927 164.019 52.7918 164.122 52.9821H163.276C163.193 52.8078 163.138 52.6034 163.114 52.3687ZM163.046 50.4859C162.752 50.6103 162.311 50.717 161.724 50.8041C161.391 50.8539 161.155 50.9108 161.017 50.973C160.879 51.0353 160.773 51.1259 160.698 51.2468C160.622 51.3677 160.585 51.5011 160.585 51.6469C160.585 51.8709 160.667 52.0593 160.831 52.2087C160.995 52.358 161.234 52.4327 161.548 52.4327C161.862 52.4327 162.137 52.3616 162.38 52.2193C162.622 52.0771 162.802 51.8833 162.914 51.6362C163.001 51.4459 163.044 51.165 163.044 50.7935V50.4841L163.046 50.4859Z" fill="#231F20"/>
<path d="M166.052 52.982H165.3V46.1175H166.11V48.5657C166.451 48.1194 166.888 47.8954 167.418 47.8954C167.712 47.8954 167.99 47.9576 168.253 48.0803C168.516 48.203 168.731 48.3772 168.9 48.5995C169.069 48.8235 169.203 49.092 169.298 49.4066C169.394 49.7213 169.442 50.0591 169.442 50.4183C169.442 51.2699 169.238 51.9295 168.834 52.3936C168.429 52.8594 167.944 53.0905 167.377 53.0905C166.81 53.0905 166.371 52.8451 166.05 52.3544V52.9767L166.052 52.982ZM166.043 50.4574C166.043 51.053 166.122 51.485 166.277 51.7499C166.531 52.1838 166.876 52.4007 167.312 52.4007C167.665 52.4007 167.971 52.2407 168.229 51.9206C168.487 51.6006 168.617 51.1241 168.617 50.4894C168.617 49.8547 168.494 49.3604 168.246 49.0511C167.998 48.7417 167.7 48.587 167.35 48.587C166.999 48.587 166.69 48.747 166.432 49.0671C166.175 49.3871 166.045 49.8493 166.045 50.4556L166.043 50.4574Z" fill="#231F20"/>
<path d="M170.617 47.0865V46.1175H171.426V47.0865H170.617ZM170.617 52.982V48.0092H171.426V52.982H170.617Z" fill="#231F20"/>
<path d="M172.825 52.982V46.1175H173.634V52.982H172.825Z" fill="#231F20"/>
<path d="M175.079 47.0865V46.1175H175.889V47.0865H175.079ZM175.079 52.982V48.0092H175.889V52.982H175.079Z" fill="#231F20"/>
<path d="M179.072 52.2283L179.19 52.9732C178.963 53.023 178.758 53.0479 178.578 53.0479C178.285 53.0479 178.056 52.9999 177.895 52.9021C177.733 52.8061 177.619 52.6781 177.554 52.5198C177.489 52.3616 177.455 52.0309 177.455 51.5242V48.6635H176.86V48.0075H177.455V46.7754L178.259 46.2704V48.0075H179.074V48.6635H178.259V51.5722C178.259 51.8122 178.273 51.9669 178.302 52.0362C178.331 52.1056 178.377 52.1589 178.442 52.1998C178.507 52.2407 178.599 52.2603 178.718 52.2603C178.809 52.2603 178.927 52.2496 179.074 52.2283H179.072Z" fill="#231F20"/>
<path d="M183.166 52.3687C182.865 52.6336 182.576 52.8221 182.3 52.9305C182.023 53.039 181.724 53.0941 181.407 53.0941C180.882 53.0941 180.479 52.9607 180.197 52.6941C179.916 52.4274 179.774 52.086 179.774 51.6717C179.774 51.4282 179.827 51.2059 179.934 51.005C180.04 50.8041 180.18 50.6423 180.353 50.5197C180.525 50.397 180.72 50.3063 180.935 50.2441C181.094 50.1996 181.333 50.1587 181.654 50.1178C182.308 50.0361 182.79 49.9401 183.097 49.828C183.101 49.7125 183.102 49.6396 183.102 49.6076C183.102 49.2644 183.026 49.0226 182.874 48.8822C182.667 48.6919 182.36 48.5959 181.951 48.5959C181.571 48.5959 181.289 48.6653 181.108 48.804C180.927 48.9426 180.792 49.188 180.705 49.5418L179.912 49.4298C179.984 49.0778 180.104 48.7915 180.267 48.5746C180.433 48.3577 180.671 48.1906 180.983 48.0732C181.296 47.9559 181.656 47.8972 182.068 47.8972C182.479 47.8972 182.807 47.947 183.061 48.0466C183.316 48.1461 183.504 48.2724 183.623 48.4235C183.743 48.5746 183.827 48.7666 183.876 48.9978C183.903 49.1418 183.917 49.3996 183.917 49.7747V50.8983C183.917 51.6824 183.934 52.1767 183.968 52.3847C184.002 52.5927 184.071 52.7918 184.173 52.9821H183.328C183.244 52.8078 183.19 52.6034 183.166 52.3687ZM183.097 50.4859C182.804 50.6103 182.363 50.717 181.775 50.8041C181.442 50.8539 181.207 50.9108 181.068 50.973C180.93 51.0353 180.824 51.1259 180.749 51.2468C180.674 51.3677 180.636 51.5011 180.636 51.6469C180.636 51.8709 180.718 52.0593 180.882 52.2087C181.046 52.358 181.285 52.4327 181.6 52.4327C181.914 52.4327 182.189 52.3616 182.431 52.2193C182.674 52.0771 182.853 51.8833 182.966 51.6362C183.053 51.4459 183.096 51.165 183.096 50.7935V50.4841L183.097 50.4859Z" fill="#231F20"/>
<path d="M187.123 52.2283L187.241 52.9732C187.013 53.023 186.808 53.0479 186.629 53.0479C186.335 53.0479 186.107 52.9999 185.946 52.9021C185.784 52.8061 185.669 52.6781 185.604 52.5198C185.54 52.3616 185.505 52.0309 185.505 51.5242V48.6635H184.911V48.0075H185.505V46.7754L186.31 46.2704V48.0075H187.124V48.6635H186.31V51.5722C186.31 51.8122 186.323 51.9669 186.352 52.0362C186.381 52.1056 186.428 52.1589 186.492 52.1998C186.557 52.2407 186.65 52.2603 186.769 52.2603C186.86 52.2603 186.978 52.2496 187.124 52.2283H187.123Z" fill="#231F20"/>
<path d="M188.103 47.0865V46.1175H188.912V47.0865H188.103ZM188.103 52.982V48.0092H188.912V52.982H188.103Z" fill="#231F20"/>
<path d="M190.028 50.4948C190.028 49.5738 190.274 48.8911 190.765 48.4484C191.177 48.0803 191.677 47.8954 192.268 47.8954C192.926 47.8954 193.462 48.1195 193.879 48.5675C194.296 49.0155 194.504 49.6342 194.504 50.4236C194.504 51.0637 194.412 51.5669 194.227 51.9331C194.043 52.2994 193.775 52.5856 193.423 52.7883C193.071 52.991 192.685 53.0923 192.268 53.0923C191.599 53.0923 191.059 52.8683 190.648 52.422C190.236 51.9758 190.029 51.3322 190.029 50.493L190.028 50.4948ZM190.859 50.4948C190.859 51.1313 190.993 51.6077 191.259 51.926C191.525 52.2425 191.862 52.4007 192.267 52.4007C192.671 52.4007 193.003 52.2407 193.269 51.9224C193.536 51.6042 193.669 51.1188 193.669 50.4663C193.669 49.8512 193.534 49.3853 193.266 49.0689C192.998 48.7524 192.665 48.5942 192.265 48.5942C191.865 48.5942 191.524 48.7524 191.257 49.0671C190.991 49.3818 190.858 49.8583 190.858 50.4948H190.859Z" fill="#231F20"/>
<path d="M195.638 52.9821V48.0092H196.367V48.7168C196.717 48.171 197.224 47.8972 197.887 47.8972C198.176 47.8972 198.44 47.9506 198.681 48.059C198.922 48.1675 199.103 48.3079 199.223 48.4822C199.342 48.6564 199.426 48.8644 199.475 49.1044C199.506 49.2609 199.52 49.5329 199.52 49.924V52.9821H198.71V49.9578C198.71 49.6147 198.68 49.3569 198.616 49.188C198.553 49.0173 198.442 48.8822 198.282 48.7808C198.121 48.6795 197.933 48.6279 197.716 48.6279C197.371 48.6279 197.074 48.7417 196.823 48.9693C196.572 49.1969 196.447 49.6289 196.447 50.2654V52.9821H195.638Z" fill="#231F20"/>
<path d="M208.074 51.1597L208.87 51.2682C208.783 51.8389 208.561 52.2869 208.202 52.6087C207.844 52.9323 207.405 53.0941 206.882 53.0941C206.228 53.0941 205.704 52.8718 205.306 52.4274C204.908 51.9829 204.71 51.3446 204.71 50.5143C204.71 49.9774 204.795 49.508 204.966 49.1044C205.137 48.7026 205.396 48.4004 205.746 48.1977C206.095 47.9968 206.476 47.8954 206.887 47.8954C207.406 47.8954 207.83 48.0323 208.16 48.3044C208.489 48.5782 208.701 48.9658 208.793 49.4671L208.006 49.5934C207.931 49.2591 207.798 49.0084 207.608 48.8395C207.417 48.6706 207.188 48.5871 206.918 48.5871C206.51 48.5871 206.179 48.74 205.924 49.044C205.67 49.348 205.542 49.8298 205.542 50.4877C205.542 51.1455 205.664 51.6415 205.91 51.9438C206.156 52.246 206.477 52.3971 206.874 52.3971C207.191 52.3971 207.456 52.2958 207.669 52.0931C207.883 51.8904 208.018 51.5775 208.074 51.1562V51.1597Z" fill="#231F20"/>
<path d="M213.017 51.3802L213.853 51.4886C213.722 51.9971 213.478 52.3918 213.121 52.6727C212.764 52.9536 212.308 53.0941 211.753 53.0941C211.054 53.0941 210.501 52.8701 210.091 52.422C209.681 51.974 209.476 51.3464 209.476 50.5374C209.476 49.7285 209.683 49.0511 210.096 48.5888C210.51 48.1266 211.048 47.8954 211.707 47.8954C212.366 47.8954 212.866 48.1212 213.273 48.5746C213.678 49.028 213.881 49.6645 213.881 50.4859C213.881 50.5357 213.881 50.6103 213.876 50.7099H210.313C210.344 51.2557 210.491 51.6753 210.759 51.9651C211.025 52.2549 211.358 52.4007 211.758 52.4007C212.055 52.4007 212.308 52.3189 212.518 52.1571C212.728 51.9953 212.894 51.7358 213.017 51.3802ZM210.359 50.0183H213.027C212.991 49.6005 212.889 49.2858 212.721 49.0778C212.463 48.7524 212.129 48.5906 211.719 48.5906C211.346 48.5906 211.034 48.7204 210.781 48.98C210.528 49.2396 210.388 49.5862 210.361 50.0201L210.359 50.0183Z" fill="#231F20"/>
<path d="M215.054 52.9821V48.0092H215.783V48.7168C216.133 48.171 216.641 47.8972 217.303 47.8972C217.592 47.8972 217.857 47.9506 218.097 48.059C218.338 48.1675 218.519 48.3079 218.639 48.4822C218.758 48.6564 218.842 48.8644 218.892 49.1044C218.922 49.2609 218.936 49.5329 218.936 49.924V52.9821H218.126V49.9578C218.126 49.6147 218.096 49.3569 218.033 49.188C217.969 49.0173 217.858 48.8822 217.698 48.7808C217.537 48.6795 217.349 48.6279 217.132 48.6279C216.788 48.6279 216.49 48.7417 216.239 48.9693C215.988 49.1969 215.864 49.6289 215.864 50.2654V52.9821H215.054Z" fill="#231F20"/>
<path d="M222.13 52.2283L222.247 52.9732C222.02 53.023 221.815 53.0479 221.636 53.0479C221.342 53.0479 221.113 52.9999 220.953 52.9021C220.791 52.8061 220.676 52.6781 220.611 52.5198C220.546 52.3616 220.512 52.0309 220.512 51.5242V48.6635H219.918V48.0075H220.512V46.7754L221.317 46.2704V48.0075H222.131V48.6635H221.317V51.5722C221.317 51.8122 221.33 51.9669 221.359 52.0362C221.388 52.1056 221.435 52.1589 221.499 52.1998C221.564 52.2407 221.657 52.2603 221.776 52.2603C221.867 52.2603 221.984 52.2496 222.131 52.2283H222.13Z" fill="#231F20"/>
<path d="M226.375 51.3802L227.212 51.4886C227.081 51.9971 226.836 52.3918 226.479 52.6727C226.122 52.9536 225.666 53.0941 225.111 53.0941C224.413 53.0941 223.86 52.8701 223.45 52.422C223.04 51.974 222.835 51.3464 222.835 50.5374C222.835 49.7285 223.042 49.0511 223.455 48.5888C223.868 48.1266 224.406 47.8954 225.065 47.8954C225.725 47.8954 226.225 48.1212 226.631 48.5746C227.036 49.028 227.239 49.6645 227.239 50.4859C227.239 50.5357 227.239 50.6103 227.234 50.7099H223.672C223.702 51.2557 223.849 51.6753 224.117 51.9651C224.384 52.2549 224.717 52.4007 225.117 52.4007C225.414 52.4007 225.666 52.3189 225.877 52.1571C226.087 51.9953 226.252 51.7358 226.375 51.3802ZM223.718 50.0183H226.385C226.35 49.6005 226.247 49.2858 226.08 49.0778C225.822 48.7524 225.487 48.5906 225.077 48.5906C224.705 48.5906 224.392 48.7204 224.14 48.98C223.887 49.2396 223.747 49.5862 223.72 50.0201L223.718 50.0183Z" fill="#231F20"/>
<path d="M228.404 52.9821V48.0092H229.133V48.7631C229.32 48.411 229.49 48.1781 229.649 48.0661C229.806 47.9541 229.98 47.8972 230.168 47.8972C230.442 47.8972 230.718 47.9879 231 48.1692L230.722 48.9515C230.524 48.8306 230.325 48.7684 230.127 48.7684C229.95 48.7684 229.791 48.8235 229.651 48.9355C229.511 49.0475 229.41 49.2004 229.35 49.396C229.26 49.6965 229.215 50.0236 229.215 50.3792V52.9821H228.406H228.404Z" fill="#231F20"/>
<path d="M150.415 19.3154C147.43 22.6241 145.749 26.4733 145.78 30.5501C145.811 34.5859 147.619 38.4583 150.599 41.6976C151.624 40.558 152.512 39.3365 153.214 38.0849C154.549 35.7043 155.268 33.1405 155.25 30.4736C155.219 26.4093 153.434 22.569 150.417 19.3154H150.415Z" fill="#406CB4"/>
<path d="M133.827 5.07423C134.343 9.58126 136.095 13.3967 139.114 15.9924C142.105 18.5633 146.116 19.6105 150.415 19.3154C150.235 17.765 149.906 16.2716 149.438 14.9079C148.545 12.3121 147.12 10.0915 145.144 8.39183C142.135 5.80495 138.161 4.75954 133.827 5.07423Z" fill="#406CB4"/>
<path d="M150.415 19.3154C150.931 14.8084 152.683 10.9929 155.702 8.39718C158.693 5.82631 162.704 4.77911 167.003 5.07425C166.824 6.62459 166.494 8.11805 166.026 9.48171C165.133 12.0775 163.708 14.2981 161.733 15.9978C158.723 18.5847 154.749 19.6301 150.415 19.3154Z" fill="#406CB4"/>
<path d="M150.401 6.94103C148.564 6.93392 147.073 5.37112 147.079 3.4563C147.088 1.54326 148.589 -0.00708732 150.428 2.43693e-05C152.266 0.00713605 153.757 1.56993 153.75 3.48475C153.743 5.39779 152.242 6.94992 150.403 6.94281L150.401 6.94103Z" fill="#406CB4"/>
</g>
<defs>
<filter id="filter0_d_2005_2" x="0" y="0" width="235" height="63" filterUnits="userSpaceOnUse" color-interpolation-filters="sRGB">
<feFlood flood-opacity="0" result="BackgroundImageFix"/>
<feColorMatrix in="SourceAlpha" type="matrix" values="0 0 0 0 0 0 0 0 0 0 0 0 0 0 0 0 0 0 127 0" result="hardAlpha"/>
<feOffset dy="4"/>
<feGaussianBlur stdDeviation="2"/>
<feComposite in2="hardAlpha" operator="out"/>
<feColorMatrix type="matrix" values="0 0 0 0 0 0 0 0 0 0 0 0 0 0 0 0 0 0 0.25 0"/>
<feBlend mode="normal" in2="BackgroundImageFix" result="effect1_dropShadow_2005_2"/>
<feBlend mode="normal" in="SourceGraphic" in2="effect1_dropShadow_2005_2" result="shape"/>
</filter>
<clipPath id="clip0_2005_2">
<rect width="227" height="55" fill="white" transform="translate(4)"/>
</clipPath>
</defs>
</svg>
